<svg width="32" height="32" viewBox="0 0 32 32" fill="none" xmlns="http://www.w3.org/2000/svg">
<path fill-rule="evenodd" clip-rule="evenodd" d="M2.50646 30.3235C1.12791 30.3235 1.41521e-07 29.0828 1.31211e-07 27.5664L6.56786e-08 17.9273L6.30902 17.9273L6.30902 17.9166L10.101 17.9166C11.0785 17.889 11.9057 16.9516 11.9057 15.8488C11.9057 14.7184 11.0535 13.7809 10.0258 13.7809L5.01291 13.7809L5.01291 13.7827L3.75009e-08 13.7827L1.87445e-08 11.0239C8.43501e-09 9.50745 1.12791 8.26676 2.50646 8.26676L10.0258 8.26676C11.9307 8.26676 13.5599 9.01117 14.8884 10.5C16.2418 11.9613 16.9186 13.7534 16.9186 15.8488C16.9186 17.9166 16.2669 19.7087 14.9385 21.1699C13.6101 22.6312 12.0059 23.4032 10.1261 23.4308L5.01291 23.4308L5.01291 27.5664C5.01291 29.0828 3.88501 30.3235 2.50646 30.3235Z" fill="#02BC6B"/>
<path fill-rule="evenodd" clip-rule="evenodd" d="M20.0779 5.06684C22.8471 8.02551 24.2425 11.7104 24.2425 15.8991C24.2425 20.0175 22.9055 23.6989 20.1791 26.6668L16.3081 22.6606C18.0037 20.8148 18.836 18.5926 18.836 15.8991C18.836 13.1852 17.9787 10.9664 16.2424 9.11133L20.0779 5.06684Z" fill="#02897A"/>
<path fill-rule="evenodd" clip-rule="evenodd" d="M26.0044 -2.51649e-08C29.9929 4.38046 32 9.81191 32 16.0457C32 22.1821 30.0738 27.6102 26.1508 32L22.415 27.9847C25.3372 24.7147 26.7691 20.7486 26.7691 16.0457C26.7691 11.2955 25.2889 7.33279 22.303 4.0534L26.0044 -2.51649e-08Z" fill="#035B81"/>
<path fill-rule="evenodd" clip-rule="evenodd" d="M0 23.454L5.01291 23.454L5.01291 27.5668C5.01291 29.0832 3.88501 30.3239 2.50646 30.3239C1.12791 30.3239 3.8271e-08 29.0832 2.79615e-08 27.5668L0 23.454Z" fill="#028E37"/>
</svg>
